<svg xmlns="http://www.w3.org/2000/svg" viewBox="0 0 50 50"><defs><style>.cls-1{fill:none;}.cls-2{fill:#212b36;}</style></defs><title>Menu_Icon1</title><g id="Layer_2" data-name="Layer 2"><g id="Layer_1-2" data-name="Layer 1"><rect class="cls-1" width="50" height="50"/><path class="cls-2" d="M46.94,18.56,25.29,7a.6.6,0,0,0-.58,0L3.06,18.56a.62.62,0,0,0,0,1.1L24.71,31.2a.6.6,0,0,0,.58,0L46.94,19.66A.62.62,0,0,0,46.94,18.56ZM25,11.61l14.07,7.5L25,26.61l-14.07-7.5Z"/><path class="cls-2" d="M36.39,29.46l2.68,1.43L25,38.39l-14.07-7.5,2.68-1.43L9.16,27.09l-6.1,3.25a.62.62,0,0,0,0,1.1L24.71,43a.6.6,0,0,0,.58,0L46.94,31.44a.62.62,0,0,0,0-1.1l-6.1-3.25Z"/></g></g></svg>