<svg xmlns="http://www.w3.org/2000/svg" viewBox="0 0 50 50"><defs><style>.cls-1{fill:none;}.cls-2{fill:#212b36;}</style></defs><title>Menu_Icon3</title><g id="Layer_2" data-name="Layer 2"><g id="Layer_1-2" data-name="Layer 1"><rect class="cls-1" width="50" height="50"/><path class="cls-2" d="M10.6,10.6H21.4V21.4H10.6V10.6m28.8,0V21.4H28.6V10.6H39.4M28.6,30.4h3.6V26.8H28.6V23.2h3.6v3.6h3.6V23.2h3.6v3.6H35.8v3.6h3.6v5.4H35.8v3.6H32.2V35.8H26.8v3.6H23.2V32.2h5.4V30.4m3.6,0v5.4h3.6V30.4H32.2m-21.6,9V28.6H21.4V39.4H10.6m3.6-25.2v3.6h3.6V14.2H14.2m18,0v3.6h3.6V14.2H32.2m-18,18v3.6h3.6V32.2H14.2m-3.6-9h3.6v3.6H10.6V23.2m9,0h7.2v7.2H23.2V26.8H19.6V23.2m3.6-9h3.6v7.2H23.2V14.2M7,7v7.2H3.4V7A3.6,3.6,0,0,1,7,3.4h7.2V7H7M43,3.4A3.6,3.6,0,0,1,46.6,7v7.2H43V7H35.8V3.4H43M7,35.8V43h7.2v3.6H7A3.6,3.6,0,0,1,3.4,43V35.8H7M43,43V35.8h3.6V43A3.6,3.6,0,0,1,43,46.6H35.8V43Z"/></g></g></svg>